<svg width="159" height="47" viewBox="0 0 159 47" fill="none" xmlns="http://www.w3.org/2000/svg">
<path d="M134.641 27.7258C134.641 26.3671 134.914 25.0941 135.459 23.9065C136.016 22.719 136.802 21.6813 137.818 20.7934C138.845 19.9054 140.081 19.2047 141.525 18.6912C142.98 18.1777 144.612 17.9209 146.42 17.9209C148.228 17.9209 149.854 18.1777 151.298 18.6912C152.753 19.2047 153.989 19.9054 155.005 20.7934C156.032 21.6813 156.818 22.719 157.364 23.9065C157.92 25.0941 158.198 26.3671 158.198 27.7258C158.198 29.0845 157.92 30.3576 157.364 31.5451C156.818 32.7326 156.032 33.7703 155.005 34.6583C153.989 35.5462 152.753 36.2469 151.298 36.7605C149.854 37.274 148.228 37.5307 146.42 37.5307C144.612 37.5307 142.98 37.274 141.525 36.7605C140.081 36.2469 138.845 35.5462 137.818 34.6583C136.802 33.7703 136.016 32.7326 135.459 31.5451C134.914 30.3576 134.641 29.0845 134.641 27.7258ZM139.632 27.7258C139.632 28.4854 139.782 29.2075 140.081 29.8922C140.391 30.5662 140.835 31.1653 141.413 31.6895C142.001 32.203 142.713 32.6149 143.547 32.9251C144.392 33.2247 145.35 33.3745 146.42 33.3745C147.49 33.3745 148.442 33.2247 149.276 32.9251C150.121 32.6149 150.833 32.203 151.41 31.6895C151.999 31.1653 152.443 30.5662 152.742 29.8922C153.053 29.2075 153.208 28.4854 153.208 27.7258C153.208 26.9662 153.053 26.2441 152.742 25.5594C152.443 24.8747 151.999 24.2756 151.41 23.7621C150.833 23.2379 150.121 22.826 149.276 22.5265C148.442 22.2162 147.49 22.0611 146.42 22.0611C145.35 22.0611 144.392 22.2162 143.547 22.5265C142.713 22.826 142.001 23.2379 141.413 23.7621C140.835 24.2756 140.391 24.8747 140.081 25.5594C139.782 26.2441 139.632 26.9662 139.632 27.7258Z" fill="black"/>
<path d="M119.284 18.2581H124.034V20.9861C125.082 20.2051 126.189 19.5311 127.355 18.9641C128.522 18.3971 129.682 17.9639 130.838 17.6643L132.234 22.0131C130.404 22.195 128.794 22.6069 127.404 23.2488C126.023 23.88 124.9 24.7733 124.034 25.9287V37.1939H119.284V18.2581Z" fill="black"/>
<path d="M95.3573 31.3846C96.641 32.1549 98.0532 32.7219 99.5938 33.0856C101.134 33.4494 102.712 33.6312 104.328 33.6312C105.419 33.6312 106.328 33.5563 107.056 33.4066C107.783 33.2568 108.366 33.0642 108.805 32.8289C109.244 32.5935 109.554 32.326 109.736 32.0265C109.918 31.7269 110.008 31.422 110.008 31.1118C110.008 30.6625 109.811 30.2773 109.415 29.9564C109.03 29.6354 108.388 29.475 107.489 29.475C107.072 29.475 106.622 29.5017 106.141 29.5552C105.66 29.6087 105.151 29.6675 104.617 29.7317C104.092 29.7852 103.541 29.8387 102.964 29.8922C102.397 29.9457 101.819 29.9724 101.231 29.9724C99.9468 29.9724 98.8502 29.8334 97.9409 29.5552C97.0422 29.2771 96.3094 28.8973 95.7424 28.4158C95.1754 27.9344 94.7635 27.3674 94.5068 26.7148C94.25 26.0515 94.1216 25.3401 94.1216 24.5805C94.1216 23.6177 94.3463 22.7297 94.7956 21.9167C95.2449 21.1036 95.8868 20.4029 96.7213 19.8145C97.5557 19.2154 98.5614 18.75 99.7382 18.4184C100.926 18.0867 102.247 17.9209 103.702 17.9209C104.461 17.9209 105.253 17.969 106.077 18.0653C106.911 18.1509 107.73 18.2686 108.532 18.4184C109.334 18.5681 110.105 18.7447 110.843 18.9479C111.581 19.1405 112.234 19.3491 112.801 19.5738L111.308 23.2647C110.099 22.8153 108.891 22.4623 107.682 22.2055C106.483 21.9381 105.248 21.8043 103.975 21.8043C103.087 21.8043 102.332 21.8739 101.712 22.013C101.102 22.1413 100.605 22.3179 100.22 22.5425C99.8345 22.7565 99.551 23.0079 99.3691 23.2968C99.1979 23.5749 99.1123 23.8691 99.1123 24.1794C99.1123 24.404 99.1551 24.6073 99.2407 24.7892C99.337 24.971 99.4868 25.1315 99.69 25.2706C99.904 25.3989 100.177 25.5006 100.508 25.5755C100.851 25.6397 101.268 25.6718 101.76 25.6718C102.209 25.6718 102.686 25.645 103.188 25.5915C103.691 25.538 104.215 25.4845 104.761 25.431C105.307 25.3669 105.868 25.308 106.446 25.2545C107.034 25.201 107.633 25.1743 108.243 25.1743C109.377 25.1743 110.367 25.308 111.212 25.5755C112.068 25.8429 112.774 26.2174 113.33 26.6988C113.887 27.1802 114.304 27.7472 114.582 28.3998C114.86 29.0524 114.999 29.7638 114.999 30.5341C114.999 31.529 114.769 32.4544 114.309 33.3103C113.849 34.1661 113.164 34.9097 112.255 35.5409C111.346 36.1614 110.212 36.6481 108.853 37.0012C107.505 37.3542 105.943 37.5307 104.167 37.5307C103.076 37.5307 102.022 37.4612 101.006 37.3221C99.9896 37.1937 99.0214 37.0172 98.1014 36.7925C97.1813 36.5572 96.3148 36.2844 95.5017 35.9741C94.6993 35.6639 93.9665 35.3322 93.3032 34.9792L95.3573 31.3846Z" fill="black"/>
<path d="M83.755 18.2581H88.505V37.1939H83.755V18.2581Z" fill="black"/>
<path d="M54.1477 12.1118H63.3428C66.0281 12.1118 68.3603 12.4007 70.3394 12.9784C72.3186 13.5561 73.9554 14.3852 75.2499 15.4657C76.5551 16.5355 77.5233 17.8407 78.1545 19.3813C78.7964 20.9111 79.1173 22.6335 79.1173 24.5485C79.1173 26.3672 78.8017 28.0522 78.1705 29.6034C77.5393 31.1439 76.5765 32.4812 75.282 33.6152C73.9875 34.7385 72.3507 35.6211 70.3715 36.263C68.3924 36.8942 66.0602 37.2098 63.3749 37.2098L54.1477 37.1938V12.1118ZM64.5945 32.7968C66.1137 32.7968 67.4456 32.6042 68.5903 32.2191C69.735 31.8233 70.6871 31.267 71.4467 30.5502C72.217 29.8334 72.7947 28.9668 73.1798 27.9505C73.565 26.9342 73.7575 25.8002 73.7575 24.5485C73.7575 23.3182 73.565 22.2109 73.1798 21.2267C72.7947 20.2318 72.217 19.3919 71.4467 18.7073C70.6871 18.0119 69.735 17.477 68.5903 17.1025C67.4456 16.7281 66.1137 16.5409 64.5945 16.5409H59.2347V32.7968H64.5945Z" fill="black"/>
<path d="M7.36908 26.5454L4.92151 46.7721L0 45.9251L7.36908 26.5454Z" fill="black"/>
<path d="M10.7677 25.5928L21.7026 43.7652L17.0022 45.2468L10.7677 25.5928Z" fill="black"/>
<path d="M12.2113 23.8452L29.0515 38.554L25.0774 41.1172L12.2113 23.8452Z" fill="black"/>
<path d="M11.0932 20.498L32.3636 30.4533L29.465 33.874L11.0932 20.498Z" fill="black"/>
<path d="M11.4124 19.2498L35.2485 23.5793L33.678 27.557L11.4124 19.2498Z" fill="black"/>
<path d="M10.0176 17.9661L34.3311 16.2898L34.2268 20.478L10.0176 17.9661Z" fill="black"/>
<path d="M8.59283 17.2603L31.2504 9.72583L32.6224 13.7548L8.59283 17.2603Z" fill="black"/>
<path d="M5.94934 17.0187L24.967 4.28564L27.6947 7.8037L5.94934 17.0187Z" fill="black"/>
<path d="M2.97888 17.7746L16.6893 0.960205L20.5327 3.65843L2.97888 17.7746Z" fill="black"/>
<path d="M0.89946 19.4236L8.10143 0L12.7252 1.64176L0.89946 19.4236Z" fill="black"/>
<path d="M0.110519 20.7585L0.173342 0.429199L5.1715 0.87105L0.110519 20.7585Z" fill="black"/>
<path d="M9.01496 26.4473L13.0859 46.4918L8.07011 46.7619L9.01496 26.4473Z" fill="black"/>
</svg>
